# xmcd
#
# Track frame offsets:
#	150
#	12477
#	23912
#	39269
#	60735
#	74811
#	89201
#	101890
#	117677
#	128561
#	143987
#	158246
#	171986
#	183100
#	193011
#	207261
#	223041
#	237265
#	248959
#	263196
#	275618
#	287204
#	297974
#	311291
#
# Disc length: 4325 seconds
#
# Revision: 0
# Processed by: cddbd v1.5.2PL0 Copyright (c) Steve Scherf et al.
# Submitted via: audiograbber 1.83.01
#
DISCID=8010e318
DTITLE=Sampler - Cowboy Dreams - CD 3 - Die Sterne über der Prärie
DYEAR=2008
DGENRE=Country
TTITLE0=Bill Anderson - Bright Lights And Country Music
TTITLE1=Eddy Raven - I'm Gonna Get You
TTITLE2=Bobby Sykes And Lou Darnell - Have I Told You Lately That I Love You
TTITLE3=Marty Raybon - Butterfly Kisses
TTITLE4=Jerry Wallace - A Woman's Touch
TTITLE5=Holly Dunn - Strangers Again
TTITLE6=Merle Haggard - Silver Wings
TTITLE7=Ed Bruce - When You Fall In Love, Everything's A Waltz
TTITLE8=Billie Jo Spears - Misty Blue
TTITLE9=Eddy Raven - You Should Have Been Gone By Now
TTITLE10=T. Graham Brown - Hell And High Water
TTITLE11=Conway Twitty - Baby's Gone
TTITLE12=Roger Miller - Husbands And Wives
TTITLE13=Merle Haggard - Mama Tried
TTITLE14=Loretta Doherty - Poor Poor Pityful Me
TTITLE15=Bobby Sykes - Cold, Cold Heart
TTITLE16=Roger Miller - My Elusive Dreams
TTITLE17=George McCormick - Half As Much
TTITLE18=Pam Gadd - Birmingham Jail
TTITLE19=Conway Twitty - This Time I've Hurt Her More Than She Loves Me
TTITLE20=Glen Campbell - It's All In The Game
TTITLE21=Billie Jo Spears - I'm So Lonesome I Could Cry
TTITLE22=Conway Twitty - After All The Good Is Gone
TTITLE23=Pam Gadd - Bury Me Not On The Lone Prairie
EXTD=
EXTT0=
EXTT1=
EXTT2=
EXTT3=
EXTT4=
EXTT5=
EXTT6=
EXTT7=
EXTT8=
EXTT9=
EXTT10=
EXTT11=
EXTT12=
EXTT13=
EXTT14=
EXTT15=
EXTT16=
EXTT17=
EXTT18=
EXTT19=
EXTT20=
EXTT21=
EXTT22=
EXTT23=
PLAYORDER=
